# xmcd
#
# Track frame offsets: 
#        150
#        8189
#        16964
#        24712
#        31649
#        39711
#        47690
#        59263
#        66913
#        71468
#        81255
#        91602
#        103002
#        111102
#        119906
#
# Disc length: 1695 seconds
#
# Revision: 0
# Processed by: cddbd v1.5.2PL0 Copyright (c) Steve Scherf et al.
# Submitted via: ExactAudioCopyFreeDBPlugin 1.0
#
DISCID=c1069d0f
DTITLE=B and the Bops - All Tangled Up
DYEAR=2015
DGENRE=R&B
TTITLE0=Breathin' Down My Neck
TTITLE1=Rockin'Rythm Mama
TTITLE2=Serves Me Right
TTITLE3=Spitzmaus(Instrumental)
TTITLE4=The Man From The Other Side
TTITLE5=Weekend
TTITLE6=Crazy Over You
TTITLE7=Slam The Door
TTITLE8=City Cicken(Instrumental)
TTITLE9=Take My Hat Off The Blues
TTITLE10=Tangled Boogie
TTITLE11=Breathin' Down My Neck(slow)
TTITLE12=I'll Just Keep On Loving You
TTITLE13=Wrangle
TTITLE14=Hot To Trot
EXTD=
EXTT0=
EXTT1=
EXTT2=
EXTT3=
EXTT4=
EXTT5=
EXTT6=
EXTT7=
EXTT8=
EXTT9=
EXTT10=
EXTT11=
EXTT12=
EXTT13=
EXTT14=
PLAYORDER=
